<?xml version="1.0" standalone="no"?>
<!DOCTYPE svg PUBLIC "-//W3C//DTD SVG 20010904//EN"
 "http://www.w3.org/TR/2001/REC-SVG-20010904/DTD/svg10.dtd">
<svg version="1.0" xmlns="http://www.w3.org/2000/svg"
 width="512.000000pt" height="512.000000pt" viewBox="0 0 512.000000 512.000000"
 preserveAspectRatio="xMidYMid meet">
<metadata>
Created by potrace 1.14, written by Peter Selinger 2001-2017
</metadata>
<g transform="translate(0.000000,512.000000) scale(0.100000,-0.100000)"
fill="#000000" stroke="none">
<path d="M2490 5101 c-83 -45 -342 -343 -501 -576 -97 -143 -233 -393 -274
-505 -71 -195 -107 -321 -140 -500 -4 -19 -8 -118 -10 -220 -4 -242 19 -396
95 -630 128 -394 395 -813 728 -1146 143 -143 196 -145 329 -15 353 345 646
816 767 1236 81 280 96 597 41 877 -90 454 -370 952 -767 1362 -61 63 -120
117 -132 121 -52 16 -102 15 -136 -4z"/>
<path d="M1199 4847 c-45 -21 -61 -40 -92 -107 -34 -72 -113 -286 -123 -328
-14 -66 -19 -62 121 -97 72 -18 182 -50 246 -72 l116 -39 46 96 c26 52 80 153
122 224 41 71 75 133 75 137 0 8 -218 117 -323 161 -83 34 -151 43 -188 25z"/>
<path d="M3820 4853 c-121 -42 -410 -179 -410 -194 0 -5 33 -64 73 -132 40
-67 95 -167 121 -223 l49 -101 115 40 c63 21 173 54 245 72 72 18 133 37 135
43 4 12 -75 242 -117 344 -18 43 -42 89 -53 104 -34 43 -107 65 -158 47z"/>
<path d="M116 4115 c-48 -12 -76 -35 -100 -83 -15 -28 -16 -58 -11 -230 2
-108 7 -215 10 -237 30 -215 39 -275 61 -370 14 -60 27 -119 29 -130 25 -111
117 -359 185 -497 195 -391 470 -667 861 -864 194 -97 447 -181 694 -230 11
-2 31 -6 45 -9 14 -3 43 -7 65 -11 22 -3 53 -7 69 -10 l30 -5 -20 23 c-10 12
-29 34 -42 48 -56 62 -186 235 -259 345 -161 241 -283 486 -362 730 -26 80
-68 241 -75 291 -4 22 -9 51 -11 64 -21 103 -27 423 -12 569 8 80 48 279 72
357 8 26 12 51 10 55 -10 15 -336 113 -445 132 -61 12 -147 27 -165 31 -12 2
-48 7 -80 11 -33 4 -73 9 -90 11 -150 18 -403 23 -459 9z"/>
<path d="M4757 4124 c-1 -1 -42 -5 -92 -9 -49 -4 -110 -9 -135 -11 -66 -6
-232 -33 -314 -50 -39 -9 -79 -17 -88 -19 -97 -21 -344 -99 -360 -114 -3 -3 4
-46 18 -96 51 -191 67 -316 68 -535 1 -177 -5 -274 -20 -355 -12 -65 -16 -85
-26 -130 -83 -372 -266 -754 -534 -1112 -47 -62 -90 -118 -97 -125 -7 -7 -34
-39 -60 -70 l-48 -57 33 5 c18 2 44 6 58 9 14 3 45 8 70 11 126 16 399 94 572
163 95 38 271 127 358 182 307 196 550 483 714 849 37 81 129 347 140 400 2
14 7 32 10 40 3 8 7 26 10 40 2 14 11 59 20 100 9 41 18 93 21 115 4 22 8 51
10 65 3 14 7 52 11 85 3 33 8 71 10 85 3 14 7 112 10 218 5 193 5 194 -20 236
-38 65 -76 79 -219 80 -65 1 -119 0 -120 0z"/>
<path d="M289 1893 c-103 -78 -267 -241 -279 -278 -13 -39 -6 -99 15 -131 24
-37 145 -152 244 -232 271 -218 562 -362 846 -417 83 -16 119 -19 230 -19 240
-1 416 41 660 158 135 65 267 146 240 147 -51 2 -186 16 -275 29 -270 38 -500
97 -730 187 -206 81 -404 188 -559 303 -113 84 -125 94 -234 201 l-98 96 -60
-44z"/>
<path d="M4714 1879 c-77 -79 -223 -204 -304 -261 -310 -217 -661 -358 -1110
-443 -121 -23 -153 -28 -270 -40 -30 -3 -71 -8 -90 -10 -19 -2 -46 -4 -60 -4
-62 -2 268 -175 450 -235 235 -78 496 -93 729 -40 264 60 532 198 796 409 88
71 229 207 246 237 16 29 20 88 9 122 -14 43 -141 170 -281 281 l-56 44 -59
-60z"/>
<path d="M2500 919 c-128 -93 -326 -206 -448 -256 l-53 -22 27 -48 c135 -238
386 -540 481 -579 66 -28 111 -13 191 64 80 78 175 187 248 287 52 71 161 244
166 265 2 6 -46 34 -107 63 -135 65 -232 121 -352 203 -50 35 -93 64 -95 63
-2 0 -28 -18 -58 -40z"/>
</g>
</svg>
